PathFileType	4	(X/Y/Z)	Walk1_0-155.trc
DataRate	CameraRate	NumFrames	NumMarkers	Units	OrigDataRate	OrigDataStartFrame	OrigNumFrames
30	30	7	22	m	30	38	155
Frame#	Time	Hip			RHip			RKnee			RAnkle			RBigToe			RSmallToe			RHeel			LHip			LKnee			LAnkle			LBigToe			LSmallToe			LHeel			Neck			Head			Nose			RShoulder			RElbow			RWrist			LShoulder			LElbow			LWrist		
		X1	Y1	Z1	X2	Y2	Z2	X3	Y3	Z3	X4	Y4	Z4	X5	Y5	Z5	X6	Y6	Z6	X7	Y7	Z7	X8	Y8	Z8	X9	Y9	Z9	X10	Y10	Z10	X11	Y11	Z11	X12	Y12	Z12	X13	Y13	Z13	X14	Y14	Z14	X15	Y15	Z15	X16	Y16	Z16	X17	Y17	Z17	X18	Y18	Z18	X19	Y19	Z19	X20	Y20	Z20	X21	Y21	Z21	X22	Y22	Z22
39	1.3	-2.0955520215872694	0.8510732020136886	0.3725689771331309	-2.0468309634764257	0.8335793125597198	0.4713171570770228	-1.9914815985184102	0.4842110947108364	0.42761874352813395	-2.0303674189448087	0.07971518842217168	0.419139808787865	-1.800225500036032	0.024213247177206153	0.43645179350075425	-1.8308245026163668	0.020000004590390804	0.5006777688942146	-2.0554465219030176	0.014195938711967839	0.4189918674886498	-2.1288629728474096	0.8251037197464185	0.27950055034729837	-2.072173301971944	0.4424315537510641	0.2770711356702094	-2.383825414880276	0.21280802633211804	0.28284351742821784	-2.3359528770910587	-0.01632824725459889	0.27090757284269557	-2.3903028928449075	0.002287403766478932	0.23763819684765428	-2.4561238220371644	0.18943030199598623	0.2805406522689773	-2.1134052040886844	1.5305992594158337	0.34454057759782564	-2.0731294859318252	1.7796640912057151	0.3506959334635002	-1.9684891439393117	1.6582612730675859	0.3756525545594411	-2.1417764466597875	1.4117339118575165	0.5342120153239985	-2.1114845878014648	1.1021153271118609	0.616046251779347	-2.0919704120226457	0.849587176821199	0.6386908408576407	-2.1762672742724374	1.4246825132807779	0.14173858625874788	-2.159687263007345	1.1098557461871439	0.09684097698034784	-2.0750112825638882	0.8543138142719586	0.12030540159799463
40	1.3333333333333333	-2.0688332552217603	0.8544317682668608	0.37278078468444825	-2.0364380259227217	0.8374063992313114	0.4712137018753232	-1.9839299769098524	0.48269500059730697	0.43034016114752305	-2.0110457811062368	0.09328657275810316	0.4322775965251489	-1.8051716465250294	0.018926724177081876	0.43488939674625915	-1.8328963252530064	0.019201808496069984	0.4963873724197079	-2.050915751774456	0.0166340303815491	0.4262966656113618	-2.0920489537029066	0.8354703196494639	0.2788713131325882	-2.0057956990128276	0.46172594569665626	0.27509980468732287	-2.333622320702165	0.1947398353683089	0.30315453977854123	-2.2944610436504584	-0.014517969900526664	0.28105660503041935	-2.3442965946590535	0.011866114801881242	0.24356217159033858	-2.3895822224767445	0.2210680791669421	0.29248420192495644	-2.089398754809509	1.5359501525943222	0.35099082726597297	-2.054243849450991	1.7855792771660741	0.3512681178320603	-1.9436205971679656	1.664689646281762	0.38124990081966253	-2.1135739023277558	1.4193935306184264	0.536119111376498	-2.0697236226200637	1.1053530685358015	0.61517779768971	-2.0377914299075726	0.8507591201090298	0.6383196938868223	-2.153216589305022	1.432796625571039	0.1491432017491462	-2.139741190641416	1.1184888797333135	0.102473238483419	-2.0335858048015756	0.8669533714622042	0.11847119009359038
41	1.3666666666666667	-2.0466496225674553	0.8555738658926573	0.3742143663073355	-2.024910411174433	0.8373621290899067	0.47693236386109533	-1.9907400718462556	0.47882813426885446	0.43812615525127435	-2.035736850356922	0.08544414642569644	0.445423234757662	-1.8244939994134737	0.00228171905134776	0.4439079139863839	-1.8638428436092818	-0.0035546043878886464	0.4783547297045707	-2.0572276979566397	0.013902430075793093	0.42978431736242223	-2.057707199460639	0.8382302071508078	0.2839094809006291	-1.9357572406565444	0.4826102655545396	0.2782680611037021	-2.2689317480930518	0.20656129620370942	0.312719405640936	-2.221522914935366	-0.010512707516323013	0.28137045968711544	-2.2620842888475314	0.017330558637913728	0.242224058570788	-2.3241934624352365	0.23725646451292723	0.3018471882142001	-2.061806460557514	1.5445577608528982	0.35410903831765145	-2.029467275338532	1.7917215365010053	0.3581069646927137	-1.9091415933076077	1.6540450531816169	0.35561392313709506	-2.085989505146277	1.4252809447102899	0.5433735192971119	-2.033079248088211	1.1077422623945317	0.6191653578528797	-1.9832622780592712	0.8549174760611676	0.6401333299813955	-2.1277814992092488	1.441357768710721	0.15666044897840609	-2.11308685934704	1.1266643580480058	0.11012845585418751	-2.017298886483505	0.8713098708563745	0.12024530305462472
42	1.4	-2.0201155854417836	0.8573477139442804	0.37846990867336316	-2.0079228320421008	0.8351309888040664	0.48154631128334313	-1.9881035515222365	0.4778946723300454	0.4466322257613762	-2.0047322877735443	0.10524802046533491	0.43684794481428874	-1.8137363870635694	0.014824749831763118	0.43365056324854195	-1.8560641523858992	0.010912974851594516	0.4970772709308808	-2.045872080368518	0.029613466958364698	0.4309130420916614	-2.0299471181228994	0.8410325333140689	0.2820404034920765	-1.8644510589498011	0.5060722290871501	0.2802267421487453	-2.1863738022971426	0.22521145959226022	0.31105553550830867	-2.1115928184568866	0.015955815026548865	0.2827777311572867	-2.155035910645303	0.04536617756612328	0.23596732167819395	-2.2525414160470807	0.19427742962818303	0.32199919432415997	-2.0326813343421137	1.550627661794174	0.36106522880117	-1.9839613590672966	1.80411284848857	0.40352627231865784	-1.8806632279121058	1.6570619028726103	0.35890489163204103	-2.059652172870443	1.4321712592491194	0.5458994619561868	-1.992388510461225	1.109461922348327	0.6224267322944195	-1.9177561960175218	0.8620092789675305	0.6466257832699644	-2.099140053601709	1.4434907983981828	0.15813822578455047	-2.0907637301528452	1.131434267435847	0.11456191391212188	-2.020410522511603	0.8724797701668396	0.12035111393448472
43	1.4333333333333333	-1.9956845457627153	0.8607626927333525	0.3821856138779626	-1.9900680682460583	0.8356600705265813	0.4844646729616248	-1.9875034035678014	0.47305116670502106	0.453026408080966	-2.008454579161517	0.1116160625701502	0.4429778756469847	-1.83206692193058	0.01761593598045179	0.4483787891827953	-1.8737140888179495	0.006793029892121479	0.4884500454345552	-2.057136917651315	0.038959160038291654	0.44305379548453366	-1.9907538972357457	0.8469699526156546	0.28486314392537293	-1.8067116353323311	0.5240483375467826	0.28520123955527	-2.091541306647308	0.2188676224850271	0.3137123480294592	-1.9530828084598624	0.04562776512843418	0.3047314483935078	-2.0139121992679	0.057110341408391795	0.25683607589513957	-2.158445025926535	0.17977062765603957	0.31515989465465677	-2.0039972541908755	1.555144908706265	0.3617176092014408	-1.951735454864205	1.8102004302366246	0.3899835471220482	-1.8540701933795753	1.662439077987727	0.3648243906257491	-2.0332438569068065	1.43842241079526	0.5488570690686765	-1.9546449256844793	1.1157883392783443	0.6261051423735173	-1.8582964088639478	0.8722183348920317	0.643311294108397	-2.0697315865519372	1.4435192615490215	0.16368020507567926	-2.028346815924618	1.1138067657637043	0.1319042821901788	-1.9963916490532092	0.8726854550364854	0.1239404252554772
44	1.4666666666666666	-1.9661018827238974	0.8657043533562543	0.38727004694442535	-1.9715502803478182	0.8362547180042373	0.4849980119391217	-1.98439376615294	0.47678048255127836	0.46093696062590334	-2.0378721710248064	0.0962239189682621	0.46850205582678217	-1.8146669484877032	0.01694822992109395	0.4324387205684465	-1.8627471493895367	0.01432472480151652	0.49987508600391206	-2.082195035305533	0.026059747970373384	0.4671982481901045	-1.9551015153248867	0.8549192448145201	0.2836653169718281	-1.756058376754013	0.5420129115778642	0.29087045257625477	-2.002377552643493	0.20480546572615804	0.31539229870705165	-1.8701195789784788	0.030932734801407243	0.3099433665184023	-1.9203797906004967	0.044940067461376916	0.2553075926759035	-2.078230058645795	0.1440436166928897	0.31721906096012237	-1.9779871073522317	1.5554102610029517	0.36392920308917587	-1.9220917583398147	1.8113725166552224	0.3937195501549891	-1.8250394595823123	1.6610808402883814	0.3679879456173793	-2.0071769676818243	1.439305312437374	0.5473570106690545	-1.9148987394003296	1.1261657672259617	0.6291477102593753	-1.8033522154253805	0.8899956229464024	0.6525060220570423	-2.0442434118689263	1.4427890110324293	0.16127001092246154	-2.005418040018346	1.1106902945363777	0.12990607513877137	-1.9761352548775137	0.8751345261912632	0.12639064756247467
45	1.5	-1.935378524084144	0.8705543522213668	0.38825078091644316	-1.9481782450882945	0.8456676316315151	0.4843507126267593	-1.9799056793820287	0.4725823189494642	0.46257789710870933	-2.0097513324422303	0.09895915253834027	0.44211583549076333	-1.8242872082857997	0.011180075713256684	0.44713341716968935	-1.8889767854713724	-0.0011394342532389606	0.5195342606496123	-2.0453609894272495	0.023506877096322622	0.444340607172247	-1.918798945162628	0.8662996116461692	0.2839121351186266	-1.7153622540534474	0.5498355070123545	0.2883590014965979	-1.9172028141347461	0.17165768997907196	0.31608880859094185	-1.7520652287527907	0.026135371203219446	0.30548156253070124	-1.8013091577099383	0.031950978112143376	0.2516120290840908	-1.9869224381470534	0.10249257265921831	0.3208271791258671	-1.948102932120601	1.5575808537488696	0.36247913749560273	-1.8847029461710694	1.808640285416175	0.3683161359432585	-1.7974583006009819	1.6632087072886497	0.3674184696514856	-1.978107489035165	1.446880262440866	0.5473026988660947	-1.8770596529197408	1.132146632630546	0.6309926484830359	-1.7469618401843503	0.9004766226643409	0.6548606882865211	-2.016448477138724	1.4426480257454013	0.1622704601887254	-1.9899148947958714	1.1132628257022221	0.125178754854827	-1.9521338151253738	0.8699666454061358	0.132850633309358
